<svg width="174" height="96" viewBox="0 0 174 96" fill="none" xmlns="http://www.w3.org/2000/svg">
<path d="M19.4609 63.232C19.4609 66.304 20.0156 68.9067 21.1249 71.04C22.2343 73.1733 23.6849 74.9227 25.4769 76.288C27.3542 77.568 29.5303 78.5493 32.0049 79.232C34.4796 79.8293 37.0396 80.128 39.6849 80.128C41.4769 80.128 43.3969 80 45.4449 79.744C47.4929 79.4027 49.4129 78.8053 51.2049 77.952C52.9969 77.0987 54.4903 75.9467 55.6849 74.496C56.8796 72.96 57.4769 71.04 57.4769 68.736C57.4769 66.2613 56.6662 64.256 55.0449 62.72C53.5089 61.184 51.4609 59.904 48.9009 58.88C46.3409 57.856 43.4395 56.96 40.1969 56.192C36.9542 55.424 33.6689 54.5707 30.3409 53.632C26.9276 52.7787 23.5996 51.7547 20.3569 50.56C17.1142 49.28 14.2129 47.6587 11.6529 45.696C9.09287 43.7333 7.00223 41.3013 5.3809 38.4C3.8449 35.4133 3.07688 31.8293 3.07688 27.648C3.07688 22.9547 4.05825 18.9013 6.02091 15.488C8.06891 11.9893 10.7142 9.088 13.9569 6.784C17.1996 4.48 20.8689 2.77333 24.9649 1.66399C29.0609 0.554665 33.1569 0 37.2529 0C42.0316 0 46.5969 0.554665 50.9489 1.66399C55.3862 2.688 59.3116 4.39466 62.7249 6.784C66.1382 9.17333 68.8263 12.2453 70.7889 16C72.8369 19.6693 73.8609 24.1493 73.8609 29.44H54.4049C54.2342 26.7093 53.6369 24.448 52.6129 22.656C51.6742 20.864 50.3943 19.456 48.7729 18.432C47.1516 17.408 45.2742 16.6827 43.1409 16.256C41.0929 15.8293 38.8316 15.616 36.3569 15.616C34.7356 15.616 33.1142 15.7867 31.4929 16.128C29.8716 16.4693 28.3783 17.0667 27.0129 17.92C25.7329 18.7733 24.6662 19.84 23.8129 21.12C22.9596 22.4 22.5329 24.0213 22.5329 25.984C22.5329 27.776 22.8743 29.2267 23.5569 30.336C24.2396 31.4453 25.5622 32.4693 27.5249 33.408C29.5729 34.3467 32.3462 35.2853 35.8449 36.224C39.4289 37.1627 44.0796 38.3573 49.7969 39.808C51.5036 40.1493 53.8502 40.7893 56.8369 41.728C59.9089 42.5813 62.9382 43.9893 65.9249 45.952C68.9116 47.9147 71.4716 50.56 73.6049 53.888C75.8236 57.1307 76.9329 61.312 76.9329 66.432C76.9329 70.6133 76.1222 74.496 74.5009 78.08C72.8796 81.664 70.4475 84.7787 67.2049 87.424C64.0475 89.984 60.0796 91.9893 55.3009 93.44C50.6076 94.8907 45.1462 95.616 38.9169 95.616C33.8822 95.616 28.9755 94.976 24.1969 93.696C19.5035 92.5013 15.3222 90.5813 11.6529 87.936C8.06887 85.2907 5.21022 81.92 3.07688 77.824C0.943551 73.728 -0.08041 68.864 0.00492323 63.232H19.4609Z" fill="#202123"/>
<path d="M115.386 63.232C115.386 66.304 115.941 68.9067 117.05 71.04C118.159 73.1733 119.61 74.9227 121.402 76.288C123.279 77.568 125.455 78.5493 127.93 79.232C130.405 79.8293 132.965 80.128 135.61 80.128C137.402 80.128 139.322 80 141.37 79.744C143.418 79.4027 145.338 78.8053 147.13 77.952C148.922 77.0987 150.415 75.9467 151.61 74.496C152.805 72.96 153.402 71.04 153.402 68.736C153.402 66.2613 152.591 64.256 150.97 62.72C149.434 61.184 147.386 59.904 144.826 58.88C142.266 57.856 139.365 56.96 136.122 56.192C132.879 55.424 129.594 54.5707 126.266 53.632C122.853 52.7787 119.525 51.7547 116.282 50.56C113.039 49.28 110.138 47.6587 107.578 45.696C105.018 43.7333 102.927 41.3013 101.306 38.4C99.7699 35.4133 99.0019 31.8293 99.0019 27.648C99.0019 22.9547 99.9832 18.9013 101.946 15.488C103.994 11.9893 106.639 9.088 109.882 6.784C113.125 4.48 116.794 2.77333 120.89 1.66399C124.986 0.554665 129.082 0 133.178 0C137.957 0 142.522 0.554665 146.874 1.66399C151.311 2.688 155.237 4.39466 158.65 6.784C162.063 9.17333 164.751 12.2453 166.714 16C168.762 19.6693 169.786 24.1493 169.786 29.44H150.33C150.159 26.7093 149.562 24.448 148.538 22.656C147.599 20.864 146.319 19.456 144.698 18.432C143.077 17.408 141.199 16.6827 139.066 16.256C137.018 15.8293 134.757 15.616 132.282 15.616C130.661 15.616 129.039 15.7867 127.418 16.128C125.797 16.4693 124.303 17.0667 122.938 17.92C121.658 18.7733 120.591 19.84 119.738 21.12C118.885 22.4 118.458 24.0213 118.458 25.984C118.458 27.776 118.799 29.2267 119.482 30.336C120.165 31.4453 121.487 32.4693 123.45 33.408C125.498 34.3467 128.271 35.2853 131.77 36.224C135.354 37.1627 140.005 38.3573 145.722 39.808C147.429 40.1493 149.775 40.7893 152.762 41.728C155.834 42.5813 158.863 43.9893 161.85 45.952C164.837 47.9147 167.397 50.56 169.53 53.888C171.749 57.1307 172.858 61.312 172.858 66.432C172.858 70.6133 172.047 74.496 170.426 78.08C168.805 81.664 166.373 84.7787 163.13 87.424C159.973 89.984 156.005 91.9893 151.226 93.44C146.533 94.8907 141.071 95.616 134.842 95.616C129.807 95.616 124.901 94.976 120.122 93.696C115.429 92.5013 111.247 90.5813 107.578 87.936C103.994 85.2907 101.135 81.92 99.0019 77.824C96.8685 73.728 95.8446 68.864 95.9299 63.232H115.386Z" fill="#202123"/>
<path d="M2.68903 49.832H8.30505C9.44105 49.832 10.3611 49.544 11.0651 48.968C11.7691 48.392 12.121 47.512 12.121 46.328C12.121 45.144 11.7691 44.264 11.0651 43.688C10.3611 43.112 9.44105 42.824 8.30505 42.824H2.68903V49.832ZM1.05707 41.432H8.66504C9.43304 41.432 10.1291 41.544 10.7531 41.768C11.3771 41.976 11.913 42.296 12.361 42.728C12.809 43.144 13.1531 43.656 13.3931 44.264C13.6331 44.872 13.7531 45.56 13.7531 46.328C13.7531 47.096 13.6331 47.784 13.3931 48.392C13.1531 49 12.809 49.52 12.361 49.952C11.913 50.368 11.3771 50.688 10.7531 50.912C10.1291 51.12 9.43304 51.224 8.66504 51.224H2.68903V58.568H1.05707V41.432Z" fill="#202123"/>
<path d="M22.1743 41.432H23.8062V48.872H33.9822V41.432H35.6143V58.568H33.9822V50.264H23.8062V58.568H22.1743V41.432Z" fill="#202123"/>
<path d="M45.7927 50C45.7927 50.928 45.9126 51.848 46.1526 52.76C46.4086 53.656 46.7927 54.464 47.3047 55.184C47.8327 55.888 48.5047 56.456 49.3207 56.888C50.1367 57.32 51.1127 57.536 52.2487 57.536C53.3847 57.536 54.3526 57.32 55.1526 56.888C55.9686 56.456 56.6327 55.888 57.1447 55.184C57.6727 54.464 58.0567 53.656 58.2967 52.76C58.5527 51.848 58.6807 50.928 58.6807 50C58.6807 49.056 58.5527 48.136 58.2967 47.24C58.0567 46.344 57.6727 45.544 57.1447 44.84C56.6327 44.12 55.9686 43.544 55.1526 43.112C54.3526 42.68 53.3847 42.464 52.2487 42.464C51.1127 42.464 50.1367 42.68 49.3207 43.112C48.5047 43.544 47.8327 44.12 47.3047 44.84C46.7927 45.544 46.4086 46.344 46.1526 47.24C45.9126 48.136 45.7927 49.056 45.7927 50ZM44.1606 50C44.1606 48.816 44.3287 47.688 44.6647 46.616C45.0007 45.544 45.5046 44.6 46.1766 43.784C46.8486 42.952 47.6887 42.296 48.6967 41.816C49.7207 41.32 50.9047 41.072 52.2487 41.072C53.5927 41.072 54.7687 41.32 55.7767 41.816C56.7847 42.296 57.6247 42.952 58.2967 43.784C58.9687 44.6 59.4727 45.544 59.8087 46.616C60.1447 47.688 60.3127 48.816 60.3127 50C60.3127 51.184 60.1447 52.312 59.8087 53.384C59.4727 54.456 58.9687 55.4 58.2967 56.216C57.6247 57.032 56.7847 57.688 55.7767 58.184C54.7687 58.664 53.5927 58.904 52.2487 58.904C50.9047 58.904 49.7207 58.664 48.6967 58.184C47.6887 57.688 46.8486 57.032 46.1766 56.216C45.5046 55.4 45.0007 54.456 44.6647 53.384C44.3287 52.312 44.1606 51.184 44.1606 50Z" fill="#202123"/>
<path d="M67.0377 41.432H80.5977V42.824H74.6217V58.568H72.9897V42.824H67.0377V41.432Z" fill="#202123"/>
<path d="M88.9177 50C88.9177 50.928 89.0376 51.848 89.2776 52.76C89.5336 53.656 89.9177 54.464 90.4297 55.184C90.9577 55.888 91.6297 56.456 92.4457 56.888C93.2617 57.32 94.2377 57.536 95.3737 57.536C96.5097 57.536 97.4776 57.32 98.2776 56.888C99.0936 56.456 99.7577 55.888 100.27 55.184C100.798 54.464 101.182 53.656 101.422 52.76C101.678 51.848 101.806 50.928 101.806 50C101.806 49.056 101.678 48.136 101.422 47.24C101.182 46.344 100.798 45.544 100.27 44.84C99.7577 44.12 99.0936 43.544 98.2776 43.112C97.4776 42.68 96.5097 42.464 95.3737 42.464C94.2377 42.464 93.2617 42.68 92.4457 43.112C91.6297 43.544 90.9577 44.12 90.4297 44.84C89.9177 45.544 89.5336 46.344 89.2776 47.24C89.0376 48.136 88.9177 49.056 88.9177 50ZM87.2856 50C87.2856 48.816 87.4537 47.688 87.7897 46.616C88.1257 45.544 88.6296 44.6 89.3016 43.784C89.9736 42.952 90.8137 42.296 91.8217 41.816C92.8457 41.32 94.0297 41.072 95.3737 41.072C96.7177 41.072 97.8937 41.32 98.9017 41.816C99.9097 42.296 100.75 42.952 101.422 43.784C102.094 44.6 102.598 45.544 102.934 46.616C103.27 47.688 103.438 48.816 103.438 50C103.438 51.184 103.27 52.312 102.934 53.384C102.598 54.456 102.094 55.4 101.422 56.216C100.75 57.032 99.9097 57.688 98.9017 58.184C97.8937 58.664 96.7177 58.904 95.3737 58.904C94.0297 58.904 92.8457 58.664 91.8217 58.184C90.8137 57.688 89.9736 57.032 89.3016 56.216C88.6296 55.4 88.1257 54.456 87.7897 53.384C87.4537 52.312 87.2856 51.184 87.2856 50Z" fill="#202123"/>
<path d="M111.987 41.432H113.619V57.176H123.219V58.568H111.987V41.432Z" fill="#202123"/>
<path d="M130.997 41.432H132.629V58.568H130.997V41.432Z" fill="#202123"/>
<path d="M142.198 41.432H153.07V42.824H143.83V49.016H152.038V50.408H143.83V58.568H142.198V41.432Z" fill="#202123"/>
<path d="M161.088 41.432H172.92V42.824H162.72V49.016H172.272V50.408H162.72V57.176H173.04V58.568H161.088V41.432Z" fill="#202123"/>
<mask id="mask0_85_39" style="mask-type:alpha" maskUnits="userSpaceOnUse" x="0" y="0" width="173" height="96">
<path d="M19.4609 63.232C19.4609 66.304 20.0156 68.9067 21.1249 71.04C22.2343 73.1733 23.6849 74.9227 25.4769 76.288C27.3542 77.568 29.5303 78.5493 32.0049 79.232C34.4796 79.8293 37.0396 80.128 39.6849 80.128C41.4769 80.128 43.3969 80 45.4449 79.744C47.4929 79.4027 49.4129 78.8053 51.2049 77.952C52.9969 77.0987 54.4903 75.9467 55.6849 74.496C56.8796 72.96 57.4769 71.04 57.4769 68.736C57.4769 66.2613 56.6662 64.256 55.0449 62.72C53.5089 61.184 51.4609 59.904 48.9009 58.88C46.3409 57.856 43.4395 56.96 40.1969 56.192C36.9542 55.424 33.6689 54.5707 30.3409 53.632C26.9276 52.7787 23.5996 51.7547 20.3569 50.56C17.1142 49.28 14.2129 47.6587 11.6529 45.696C9.09287 43.7333 7.00223 41.3013 5.3809 38.4C3.8449 35.4133 3.07688 31.8293 3.07688 27.648C3.07688 22.9547 4.05825 18.9013 6.02091 15.488C8.06891 11.9893 10.7142 9.088 13.9569 6.784C17.1996 4.48 20.8689 2.77333 24.9649 1.66399C29.0609 0.554665 33.1569 0 37.2529 0C42.0316 0 46.5969 0.554665 50.9489 1.66399C55.3862 2.688 59.3116 4.39466 62.7249 6.784C66.1382 9.17333 68.8263 12.2453 70.7889 16C72.8369 19.6693 73.8609 24.1493 73.8609 29.44H54.4049C54.2342 26.7093 53.6369 24.448 52.6129 22.656C51.6742 20.864 50.3943 19.456 48.7729 18.432C47.1516 17.408 45.2742 16.6827 43.1409 16.256C41.0929 15.8293 38.8316 15.616 36.3569 15.616C34.7356 15.616 33.1142 15.7867 31.4929 16.128C29.8716 16.4693 28.3783 17.0667 27.0129 17.92C25.7329 18.7733 24.6662 19.84 23.8129 21.12C22.9596 22.4 22.5329 24.0213 22.5329 25.984C22.5329 27.776 22.8743 29.2267 23.5569 30.336C24.2396 31.4453 25.5622 32.4693 27.5249 33.408C29.5729 34.3467 32.3462 35.2853 35.8449 36.224C39.4289 37.1627 44.0796 38.3573 49.7969 39.808C51.5036 40.1493 53.8502 40.7893 56.8369 41.728C59.9089 42.5813 62.9382 43.9893 65.9249 45.952C68.9116 47.9147 71.4716 50.56 73.6049 53.888C75.8236 57.1307 76.9329 61.312 76.9329 66.432C76.9329 70.6133 76.1222 74.496 74.5009 78.08C72.8796 81.664 70.4475 84.7787 67.2049 87.424C64.0475 89.984 60.0796 91.9893 55.3009 93.44C50.6076 94.8907 45.1462 95.616 38.9169 95.616C33.8822 95.616 28.9755 94.976 24.1969 93.696C19.5035 92.5013 15.3222 90.5813 11.6529 87.936C8.06887 85.2907 5.21022 81.92 3.07688 77.824C0.943551 73.728 -0.08041 68.864 0.00492323 63.232H19.4609Z" fill="#344C11"/>
<path d="M115.386 63.232C115.386 66.304 115.941 68.9067 117.05 71.04C118.159 73.1733 119.61 74.9227 121.402 76.288C123.279 77.568 125.455 78.5493 127.93 79.232C130.405 79.8293 132.965 80.128 135.61 80.128C137.402 80.128 139.322 80 141.37 79.744C143.418 79.4027 145.338 78.8053 147.13 77.952C148.922 77.0987 150.415 75.9467 151.61 74.496C152.805 72.96 153.402 71.04 153.402 68.736C153.402 66.2613 152.591 64.256 150.97 62.72C149.434 61.184 147.386 59.904 144.826 58.88C142.266 57.856 139.365 56.96 136.122 56.192C132.879 55.424 129.594 54.5707 126.266 53.632C122.853 52.7787 119.525 51.7547 116.282 50.56C113.039 49.28 110.138 47.6587 107.578 45.696C105.018 43.7333 102.927 41.3013 101.306 38.4C99.7699 35.4133 99.0019 31.8293 99.0019 27.648C99.0019 22.9547 99.9832 18.9013 101.946 15.488C103.994 11.9893 106.639 9.088 109.882 6.784C113.125 4.48 116.794 2.77333 120.89 1.66399C124.986 0.554665 129.082 0 133.178 0C137.957 0 142.522 0.554665 146.874 1.66399C151.311 2.688 155.237 4.39466 158.65 6.784C162.063 9.17333 164.751 12.2453 166.714 16C168.762 19.6693 169.786 24.1493 169.786 29.44H150.33C150.159 26.7093 149.562 24.448 148.538 22.656C147.599 20.864 146.319 19.456 144.698 18.432C143.077 17.408 141.199 16.6827 139.066 16.256C137.018 15.8293 134.757 15.616 132.282 15.616C130.661 15.616 129.039 15.7867 127.418 16.128C125.797 16.4693 124.303 17.0667 122.938 17.92C121.658 18.7733 120.591 19.84 119.738 21.12C118.885 22.4 118.458 24.0213 118.458 25.984C118.458 27.776 118.799 29.2267 119.482 30.336C120.165 31.4453 121.487 32.4693 123.45 33.408C125.498 34.3467 128.271 35.2853 131.77 36.224C135.354 37.1627 140.005 38.3573 145.722 39.808C147.429 40.1493 149.775 40.7893 152.762 41.728C155.834 42.5813 158.863 43.9893 161.85 45.952C164.837 47.9147 167.397 50.56 169.53 53.888C171.749 57.1307 172.858 61.312 172.858 66.432C172.858 70.6133 172.047 74.496 170.426 78.08C168.805 81.664 166.373 84.7787 163.13 87.424C159.973 89.984 156.005 91.9893 151.226 93.44C146.533 94.8907 141.071 95.616 134.842 95.616C129.807 95.616 124.901 94.976 120.122 93.696C115.429 92.5013 111.247 90.5813 107.578 87.936C103.994 85.2907 101.135 81.92 99.0019 77.824C96.8685 73.728 95.8446 68.864 95.9299 63.232H115.386Z" fill="#344C11"/>
</mask>
<g mask="url(#mask0_85_39)">
<path d="M2.68903 49.832H8.30505C9.44105 49.832 10.3611 49.544 11.0651 48.968C11.7691 48.392 12.121 47.512 12.121 46.328C12.121 45.144 11.7691 44.264 11.0651 43.688C10.3611 43.112 9.44105 42.824 8.30505 42.824H2.68903V49.832ZM1.05707 41.432H8.66504C9.43304 41.432 10.1291 41.544 10.7531 41.768C11.3771 41.976 11.913 42.296 12.361 42.728C12.809 43.144 13.1531 43.656 13.3931 44.264C13.6331 44.872 13.7531 45.56 13.7531 46.328C13.7531 47.096 13.6331 47.784 13.3931 48.392C13.1531 49 12.809 49.52 12.361 49.952C11.913 50.368 11.3771 50.688 10.7531 50.912C10.1291 51.12 9.43304 51.224 8.66504 51.224H2.68903V58.568H1.05707V41.432Z" fill="white"/>
<path d="M22.1743 41.432H23.8062V48.872H33.9822V41.432H35.6143V58.568H33.9822V50.264H23.8062V58.568H22.1743V41.432Z" fill="white"/>
<path d="M45.7927 50C45.7927 50.928 45.9126 51.848 46.1526 52.76C46.4086 53.656 46.7927 54.464 47.3047 55.184C47.8327 55.888 48.5047 56.456 49.3207 56.888C50.1367 57.32 51.1127 57.536 52.2487 57.536C53.3847 57.536 54.3526 57.32 55.1526 56.888C55.9686 56.456 56.6327 55.888 57.1447 55.184C57.6727 54.464 58.0567 53.656 58.2967 52.76C58.5527 51.848 58.6807 50.928 58.6807 50C58.6807 49.056 58.5527 48.136 58.2967 47.24C58.0567 46.344 57.6727 45.544 57.1447 44.84C56.6327 44.12 55.9686 43.544 55.1526 43.112C54.3526 42.68 53.3847 42.464 52.2487 42.464C51.1127 42.464 50.1367 42.68 49.3207 43.112C48.5047 43.544 47.8327 44.12 47.3047 44.84C46.7927 45.544 46.4086 46.344 46.1526 47.24C45.9126 48.136 45.7927 49.056 45.7927 50ZM44.1606 50C44.1606 48.816 44.3287 47.688 44.6647 46.616C45.0007 45.544 45.5046 44.6 46.1766 43.784C46.8486 42.952 47.6887 42.296 48.6967 41.816C49.7207 41.32 50.9047 41.072 52.2487 41.072C53.5927 41.072 54.7687 41.32 55.7767 41.816C56.7847 42.296 57.6247 42.952 58.2967 43.784C58.9687 44.6 59.4727 45.544 59.8087 46.616C60.1447 47.688 60.3127 48.816 60.3127 50C60.3127 51.184 60.1447 52.312 59.8087 53.384C59.4727 54.456 58.9687 55.4 58.2967 56.216C57.6247 57.032 56.7847 57.688 55.7767 58.184C54.7687 58.664 53.5927 58.904 52.2487 58.904C50.9047 58.904 49.7207 58.664 48.6967 58.184C47.6887 57.688 46.8486 57.032 46.1766 56.216C45.5046 55.4 45.0007 54.456 44.6647 53.384C44.3287 52.312 44.1606 51.184 44.1606 50Z" fill="white"/>
<path d="M67.0377 41.432H80.5977V42.824H74.6217V58.568H72.9897V42.824H67.0377V41.432Z" fill="white"/>
<path d="M88.9177 50C88.9177 50.928 89.0376 51.848 89.2776 52.76C89.5336 53.656 89.9177 54.464 90.4297 55.184C90.9577 55.888 91.6297 56.456 92.4457 56.888C93.2617 57.32 94.2377 57.536 95.3737 57.536C96.5097 57.536 97.4776 57.32 98.2776 56.888C99.0936 56.456 99.7577 55.888 100.27 55.184C100.798 54.464 101.182 53.656 101.422 52.76C101.678 51.848 101.806 50.928 101.806 50C101.806 49.056 101.678 48.136 101.422 47.24C101.182 46.344 100.798 45.544 100.27 44.84C99.7577 44.12 99.0936 43.544 98.2776 43.112C97.4776 42.68 96.5097 42.464 95.3737 42.464C94.2377 42.464 93.2617 42.68 92.4457 43.112C91.6297 43.544 90.9577 44.12 90.4297 44.84C89.9177 45.544 89.5336 46.344 89.2776 47.24C89.0376 48.136 88.9177 49.056 88.9177 50ZM87.2856 50C87.2856 48.816 87.4537 47.688 87.7897 46.616C88.1257 45.544 88.6296 44.6 89.3016 43.784C89.9736 42.952 90.8137 42.296 91.8217 41.816C92.8457 41.32 94.0297 41.072 95.3737 41.072C96.7177 41.072 97.8937 41.32 98.9017 41.816C99.9097 42.296 100.75 42.952 101.422 43.784C102.094 44.6 102.598 45.544 102.934 46.616C103.27 47.688 103.438 48.816 103.438 50C103.438 51.184 103.27 52.312 102.934 53.384C102.598 54.456 102.094 55.4 101.422 56.216C100.75 57.032 99.9097 57.688 98.9017 58.184C97.8937 58.664 96.7177 58.904 95.3737 58.904C94.0297 58.904 92.8457 58.664 91.8217 58.184C90.8137 57.688 89.9736 57.032 89.3016 56.216C88.6296 55.4 88.1257 54.456 87.7897 53.384C87.4537 52.312 87.2856 51.184 87.2856 50Z" fill="white"/>
<path d="M111.987 41.432H113.619V57.176H123.219V58.568H111.987V41.432Z" fill="white"/>
<path d="M130.997 41.432H132.629V58.568H130.997V41.432Z" fill="white"/>
<path d="M142.198 41.432H153.07V42.824H143.83V49.016H152.038V50.408H143.83V58.568H142.198V41.432Z" fill="white"/>
<path d="M161.088 41.432H172.92V42.824H162.72V49.016H172.272V50.408H162.72V57.176H173.04V58.568H161.088V41.432Z" fill="white"/>
</g>
</svg>
